# xmcd
#
# Track frame offsets:
#	150
#	18170
#	37840
#	56985
#	77302
#	95315
#	112750
#	131812
#	151787
#	168305
#	185817
#	206410
#	225037
#	242857
#	259190
#	277992
#	292575
#	310847
#	321645
#	340417
#
# Disc length: 4793 seconds
#
# Revision: 6
# Processed by: cddbd v1.5.2PL0 Copyright (c) Steve Scherf et al.
# Submitted via: EasyCDDAExtractor 15.3.0.1
#
DISCID=0312b714
DTITLE=Varios Artistas - Radio Hits
DYEAR=2001
DGENRE=Latin
TTITLE0=Thalia - Arrasando
TTITLE1=Cristian - Azul
TTITLE2=Paulina Rubio - Y Yo Sigo Aqui
TTITLE3=Jaci Velasquez - Como Se Cura Una Herida
TTITLE4=Aterciopelados - El Album
TTITLE5=Juanes - Nada
TTITLE6=A.B. Y Los Kumbia Kings - Boom Boom
TTITLE7=Christina Aguilera - Pero Me Acuerdo De Ti
TTITLE8=Pedro Fernandez - Sin Tu Amor
TTITLE9=Carlos Vives - Fruta Fresca
TTITLE10=Jerry Rivera - Quiero
TTITLE11=Luis Fonsi - Imaginame Sin Ti
TTITLE12=Jarabe De Palo - Dos Dias En La Vida
TTITLE13=Ilegales - Tu Recuerdo
TTITLE14=Kabah - Amigas Y Rivales
TTITLE15=Carlos Ponce - Escuchame
TTITLE16=Gisselle - Jurame
TTITLE17=Alejandro Lerner - Salon Vacio
TTITLE18=OV7 - Enloqueceme
TTITLE19=Millie - De Hoy En Adelante
EXTD=YEAR: 2001
EXTT0=
EXTT1=
EXTT2=
EXTT3=
EXTT4=
EXTT5=
EXTT6=
EXTT7=
EXTT8=
EXTT9=
EXTT10=
EXTT11=
EXTT12=
EXTT13=
EXTT14=
EXTT15=
EXTT16=
EXTT17=
EXTT18=
EXTT19=
PLAYORDER=
